<svg xmlns="http://www.w3.org/2000/svg" xmlns:xlink="http://www.w3.org/1999/xlink" width="500" zoomAndPan="magnify" viewBox="0 0 375 374.999991" height="500" preserveAspectRatio="xMidYMid meet" version="1.2"><defs><clipPath id="ee248baef1"><path d="M 0 11.25 L 375 11.25 L 375 363.75 L 0 363.75 Z M 0 11.25 "/></clipPath></defs><g id="9551e76ab6"><g clip-rule="nonzero" clip-path="url(#ee248baef1)"><path style=" stroke:none;fill-rule:nonzero;fill:#ffffff;fill-opacity:1;" d="M 374.996094 187.5 C 374.996094 232.101562 359.425781 273.058594 333.425781 305.242188 C 331.914062 307.113281 330.371094 308.953125 328.785156 310.761719 C 318.410156 322.644531 306.5625 333.207031 293.523438 342.160156 C 291.164062 343.789062 288.757812 345.359375 286.316406 346.867188 C 277.621094 352.277344 268.453125 356.988281 258.882812 360.933594 C 256.507812 361.914062 254.097656 362.847656 251.671875 363.726562 L 251.671875 356.035156 C 254.101562 355.109375 256.507812 354.132812 258.882812 353.101562 C 268.492188 348.960938 277.664062 344 286.316406 338.316406 C 288.765625 336.714844 291.167969 335.050781 293.523438 333.332031 C 304.429688 325.390625 314.40625 316.257812 323.265625 306.125 C 324.851562 304.316406 326.394531 302.476562 327.898438 300.605469 C 352.847656 269.675781 367.785156 230.335938 367.785156 187.5 C 367.785156 127.558594 338.535156 74.449219 293.523438 41.671875 C 291.167969 39.949219 288.765625 38.289062 286.316406 36.683594 C 277.664062 31 268.492188 26.042969 258.882812 21.898438 L 258.882812 252.105469 L 251.671875 246.054688 L 123.320312 138.355469 L 123.320312 363.726562 C 120.894531 362.847656 118.488281 361.914062 116.113281 360.933594 C 106.542969 356.988281 97.375 352.277344 88.679688 346.867188 C 86.234375 345.359375 83.832031 343.789062 81.46875 342.160156 C 32.265625 308.367188 0 251.703125 0 187.5 C 0 142.902344 15.566406 101.945312 41.570312 69.761719 C 43.082031 67.890625 44.625 66.050781 46.210938 64.242188 C 56.585938 52.359375 68.433594 41.792969 81.46875 32.84375 C 83.832031 31.214844 86.234375 29.640625 88.679688 28.132812 C 97.375 22.722656 106.542969 18.015625 116.113281 14.070312 C 118.488281 13.089844 120.894531 12.15625 123.320312 11.273438 L 123.320312 18.96875 C 120.890625 19.894531 118.488281 20.871094 116.113281 21.898438 C 106.503906 26.042969 97.332031 31 88.679688 36.683594 C 86.230469 38.289062 83.828125 39.949219 81.46875 41.671875 C 70.566406 49.613281 60.589844 58.746094 51.730469 68.875 C 50.144531 70.683594 48.601562 72.523438 47.09375 74.394531 C 22.148438 105.328125 7.207031 144.667969 7.207031 187.5 C 7.207031 247.441406 36.460938 300.554688 81.46875 333.332031 C 83.828125 335.050781 86.230469 336.714844 88.679688 338.316406 C 97.332031 344 106.503906 348.960938 116.113281 353.101562 L 116.113281 122.898438 L 123.320312 128.945312 L 251.671875 236.648438 L 251.671875 11.273438 C 254.097656 12.15625 256.507812 13.089844 258.882812 14.070312 C 268.453125 18.015625 277.621094 22.722656 286.316406 28.132812 C 288.757812 29.640625 291.164062 31.214844 293.523438 32.84375 C 342.730469 66.636719 374.996094 123.296875 374.996094 187.5 "/></g></g></svg>